<svg width="100" height="100" viewBox="0 0 100 100" fill="none" xmlns="http://www.w3.org/2000/svg">
<circle cx="50" cy="50" r="50" fill="white"/>
<path d="M38.0289 23.0941C37.4843 23.4667 37.3984 25.43 37.8426 28.2101C38.3012 31.1908 38.3442 31.9217 38.0432 32.5809C37.728 33.2974 37.0114 33.7273 36.1946 33.7273C35.3634 33.7273 35.1055 33.498 33.6438 31.4774C32.2394 29.5285 31.2363 28.5254 30.7634 28.597C30.0469 28.6973 30.5628 30.374 32.1534 33.1541C33.2855 35.1173 33.3142 35.7622 32.2967 36.751C31.8238 37.2096 31.7379 37.2382 30.7634 37.2382C29.8032 37.2382 29.617 37.1809 28.1553 36.4644C24.4437 34.6588 22.2941 34.0712 21.8785 34.7591C21.5203 35.318 23.0536 36.665 26.192 38.571C28.3989 39.918 28.7141 40.1616 29.1011 40.9211C29.6026 41.8956 29.3447 42.8557 28.4705 43.3573C28.2556 43.4863 27.1665 43.5723 25.2892 43.6153C22.3228 43.7012 21.6206 43.8302 21.5203 44.3461C21.42 44.905 22.8243 45.3492 25.6904 45.6932C26.6936 45.8078 27.754 46.0084 28.0406 46.1374C28.6711 46.4383 29.0294 47.0259 29.23 48.0577C29.4593 49.1898 29.6599 49.634 29.9466 49.634C30.1472 49.634 30.2045 49.4334 30.2762 48.33C30.7491 41.8526 33.7584 37.2382 38.5878 35.5759C39.9492 35.1173 42.0844 34.7304 43.2738 34.7304C47.5873 34.7447 52.1443 37.3815 54.8385 41.437C55.7556 42.8128 56.1999 43.1137 57.074 42.9704C58.3781 42.7554 60.0547 41.8813 64.5545 39.1012C69.3265 36.1491 72.4505 34.3148 79.888 30.073C89.518 24.5988 89.2744 24.7421 89.2744 24.3839C89.2744 24.1546 88.3 24.3266 87.4831 24.6991C86.5946 25.1004 82.8114 26.992 82.6108 27.1353C82.5391 27.1926 81.8226 27.5796 81.0344 27.9951C80.2463 28.4107 78.8992 29.1416 78.0251 29.6145C65.4573 36.4501 61.5164 38.1697 58.4784 38.1697C56.9594 38.1697 56.1569 37.7111 55.6696 36.5647C55.254 35.5616 55.383 34.8164 56.2572 32.9391C57.9338 29.3135 58.4641 27.6799 58.1774 26.9347C58.0771 26.6624 57.9768 26.6051 57.7189 26.6624C57.16 26.8057 55.7126 28.468 54.6092 30.2307C52.9039 32.9678 52.7176 33.2257 52.216 33.5697C51.6428 33.9709 50.6683 34.2002 50.0664 34.0999C49.5649 33.9996 48.8054 33.2687 48.5904 32.6812C48.3611 32.0936 48.3898 31.3484 48.7194 29.8008C49.092 27.9665 49.2209 26.3041 49.0203 25.8026C48.6047 24.7421 47.6876 26.0605 46.7418 29.0269C46.3119 30.3883 45.925 31.3341 45.6813 31.6351C44.8215 32.6812 43.0589 32.6525 41.9698 31.5634C41.2962 30.8899 41.2819 30.8612 40.637 28.3677C40.0208 26.0175 39.3903 24.3552 38.8314 23.567C38.3872 22.9652 38.3012 22.9078 38.0289 23.0941Z" fill="#4E0B01"/>
<path d="M88.1137 25.9745C84.4594 27.8518 77.9248 32.0936 61.9034 42.9704C58.7364 45.1199 58.3781 45.4209 55.8846 47.8427C52.9326 50.7231 51.4135 51.9412 49.6796 52.8583C48.0316 53.7182 47.0571 53.9761 45.4234 53.9761C43.8471 53.9761 42.7723 53.7038 41.7835 53.059C39.9779 51.8552 39.591 49.5767 40.9523 48.158C41.8122 47.2552 42.8153 47.1262 44.0764 47.7711C44.5349 48.0003 44.9362 48.201 44.9649 48.201C44.9935 48.201 45.0938 47.986 45.1941 47.7281C45.9537 45.8938 45.3231 43.2283 43.7898 41.7666C41.5256 39.6314 38.3012 39.4451 35.5928 41.2794C33.7298 42.5405 32.784 44.69 32.7554 47.6707V49.2328L32.2251 49.1468C31.4656 49.0178 30.9211 49.4764 30.9784 50.1929C31.0214 50.6515 31.0644 50.7088 31.5229 50.7804C32.3971 50.9237 33.3286 51.4826 34.6183 52.6147C37.0831 54.7929 38.3729 55.6241 40.6084 56.4983C43.9331 57.7737 47.5873 57.616 50.6827 56.0684C52.5313 55.1369 55.0678 52.8583 59.066 48.5019C59.6678 47.857 60.5993 46.9256 61.1439 46.467C62.5196 45.2632 69.3409 40.5915 83.4277 31.1765C88.8589 27.5366 90.5642 26.2038 90.5642 25.5876C90.5642 25.0287 89.6757 25.172 88.1137 25.9745Z" fill="#4E0B01"/>
<path d="M59.2809 50.5225C58.3925 51.6546 57.3463 52.9873 56.9594 53.5032C53.8927 57.5301 49.8802 59.6653 45.3805 59.6653C42.801 59.6653 40.3791 59.1064 38.2582 58.003C37.1691 57.4441 36.338 56.8565 32.9417 54.2627C30.9497 52.7437 29.4594 52.3138 27.5821 52.6864C26.0774 53.0017 24.5154 53.7755 23.8705 54.535C23.0537 55.4808 23.1683 55.7961 24.4724 56.1543C24.888 56.269 25.2176 56.9282 25.2176 57.659C25.2176 58.5189 25.4182 58.7768 26.2924 59.0204C27.1808 59.2784 27.7111 59.8086 27.8544 60.5681C27.969 61.1986 28.4706 61.6572 29.3877 61.9725C30.2619 62.2878 30.4338 62.4884 30.7634 63.5345C31.0644 64.5376 31.394 64.8959 32.2395 65.1825C33.1423 65.4834 33.4719 65.8704 33.7155 66.9451C33.8302 67.4324 34.0451 67.9769 34.1884 68.1489C34.561 68.5645 35.2775 68.8367 35.9654 68.8367C37.5274 68.8367 38.5449 70.0405 38.5449 71.8748C38.5449 72.8349 38.8458 73.4655 39.548 73.9813C41.5542 75.443 45.1942 74.5116 49.6079 71.4162C51.1699 70.3271 53.9214 67.633 55.0391 66.114C57.3463 62.9756 58.98 59.393 60.1121 55.0079C60.8716 52.0559 61.3875 48.4876 61.0579 48.4876C60.9719 48.4876 60.1694 49.4047 59.2809 50.5225Z" fill="#4E0B01"/>
<path d="M22.2798 57.5444C20.9471 58.2752 20.2449 59.8516 20.1016 62.474C20.0156 64.2224 20.1016 64.4516 20.7035 64.0504C21.4773 63.5345 23.3689 60.6541 23.7845 59.3357C23.9851 58.6908 23.7845 57.917 23.3116 57.5874C22.9534 57.3294 22.6811 57.3151 22.2798 57.5444Z" fill="#4E0B01"/>
<path d="M24.8593 60.7974C23.9709 61.1986 23.025 62.3594 22.1366 64.165C21.7066 65.0535 21.3484 65.856 21.3484 65.942C21.3484 66.7732 25.5185 64.1507 26.4214 62.7463C27.1092 61.7145 26.7796 60.5251 25.8338 60.5251C25.6045 60.5251 25.1746 60.6541 24.8593 60.7974Z" fill="#4E0B01"/>
<path d="M26.8656 63.9644C25.9628 64.4087 25.2892 65.0249 24.1285 66.5009C22.9534 67.9626 22.8531 68.3638 23.6699 68.1919C25.3465 67.8479 28.27 66.5009 28.9292 65.7557C29.488 65.1108 29.5597 64.251 29.0581 63.9071C28.6139 63.5918 27.5534 63.6205 26.8656 63.9644Z" fill="#4E0B01"/>
<path d="M18.683 65.8847C18.3534 66.4006 18.1241 67.9483 18.3104 68.4355C18.3964 68.6361 18.8549 69.0804 19.3278 69.3956C20.116 69.9402 20.1877 70.0262 20.3453 70.7284C20.5459 71.7028 20.7752 72.0324 21.5491 72.491C21.9073 72.706 22.4232 73.1932 22.7098 73.5801C23.2974 74.4113 23.7416 74.6262 24.6731 74.5116C25.9485 74.3683 26.622 73.7664 26.1778 73.1359C26.0775 72.9926 25.5042 72.448 24.9024 71.9608C23.7703 71.015 21.0618 67.9913 20.4886 67.0311C20.0587 66.3146 19.3422 65.5408 19.0986 65.5408C18.9982 65.5408 18.8119 65.6984 18.683 65.8847Z" fill="#4E0B01"/>
<path d="M28.9435 67.5757C28.0121 67.9339 25.0743 69.9115 25.0743 70.1981C25.0743 70.3128 25.3036 70.4274 25.6332 70.4847C26.3641 70.5994 29.3735 70.3128 30.3766 70.0262C32.0103 69.5533 32.5978 68.3065 31.5374 67.59C30.9211 67.1744 30.0183 67.1744 28.9435 67.5757Z" fill="#4E0B01"/>
<path d="M16.7196 71.3732C16.0748 72.1614 15.2006 73.9097 15.086 74.6405L15 75.1421H15.7022C16.9489 75.1421 19.5427 74.3396 19.8293 73.8667C19.8867 73.7807 19.6144 73.3938 19.2131 72.9925C18.8262 72.6056 18.296 71.9321 18.0237 71.4879C17.7658 71.0579 17.4935 70.6997 17.4075 70.6997C17.3359 70.6997 17.0206 71.0006 16.7196 71.3732Z" fill="#4E0B01"/>
<path d="M32.4545 70.929C30.9641 71.2442 28.012 72.2904 27.6824 72.62C26.8226 73.4655 33.5866 75.0275 34.9623 74.2966C35.9224 73.7807 36.4096 72.8779 36.123 72.1614C35.7218 71.2156 33.9448 70.628 32.4545 70.929Z" fill="#4E0B01"/>
<path d="M42.4857 76.3745C40.4652 76.6611 39.548 76.8188 37.1118 77.306C30.4052 78.6674 30.5342 78.6387 26.364 78.6531C23.8562 78.6531 22.1222 78.5814 21.2768 78.4524C19.7721 78.2231 17.1496 77.6643 16.5907 77.4493C16.1178 77.2773 15.9602 77.4493 16.3041 77.7646C16.734 78.1515 19.8007 79.6992 21.0618 80.1578C27.3815 82.4506 34.0881 82.6082 41.0097 80.602C45.0366 79.4412 49.264 79.1833 54.122 79.8138C55.0535 79.9285 56.2143 80.1291 56.7158 80.2437C58.1919 80.6163 58.0629 80.2867 56.3862 79.4126C54.5949 78.4954 51.5426 77.435 48.7195 76.7758C47.573 76.5035 46.6989 76.4032 45.0652 76.3602C43.8901 76.3315 42.7294 76.3315 42.4857 76.3745Z" fill="#4E0B01"/>
</svg>
