<svg width="208" height="62" viewBox="0 0 208 62" fill="none" xmlns="http://www.w3.org/2000/svg">
<path d="M35.8051 9.57391C35.3709 9.87096 35.3024 11.4361 35.6565 13.6525C36.0221 16.0289 36.0564 16.6115 35.8165 17.1371C35.5651 17.7083 34.9939 18.0511 34.3427 18.0511C33.6801 18.0511 33.4744 17.8683 32.3091 16.2574C31.1895 14.7036 30.3897 13.9039 30.0127 13.961C29.4415 14.041 29.8528 15.3777 31.1209 17.5941C32.0235 19.1593 32.0463 19.6734 31.2352 20.4617C30.8582 20.8273 30.7896 20.8501 30.0127 20.8501C29.2473 20.8501 29.0987 20.8044 27.9334 20.2332C24.9744 18.7937 23.2607 18.3253 22.9294 18.8736C22.6438 19.3192 23.8662 20.3931 26.3682 21.9126C28.1276 22.9865 28.379 23.1808 28.6875 23.7863C29.0873 24.5632 28.8817 25.3286 28.1848 25.7285C28.0134 25.8313 27.1451 25.8999 25.6485 25.9341C23.2836 26.0027 22.7237 26.1055 22.6438 26.5168C22.5638 26.9624 23.6834 27.3165 25.9684 27.5907C26.7681 27.6821 27.6135 27.8421 27.842 27.9449C28.3447 28.1848 28.6303 28.6532 28.7903 29.4758C28.9731 30.3783 29.133 30.7325 29.3615 30.7325C29.5215 30.7325 29.5672 30.5726 29.6243 29.6929C30.0013 24.5289 32.4005 20.8501 36.2506 19.5249C37.336 19.1593 39.0383 18.8508 39.9865 18.8508C43.4254 18.8622 47.0584 20.9644 49.2063 24.1976C49.9375 25.2943 50.2916 25.5343 50.9885 25.42C52.0282 25.2486 53.3649 24.5517 56.9522 22.3353C60.7567 19.9818 63.2473 18.5195 69.1767 15.1378C76.8541 10.7735 76.6599 10.8878 76.6599 10.6021C76.6599 10.4193 75.883 10.5564 75.2318 10.8535C74.5235 11.1734 71.5073 12.6814 71.3474 12.7957C71.2903 12.8414 70.719 13.1499 70.0907 13.4812C69.4623 13.8125 68.3884 14.3951 67.6915 14.7722C57.672 20.2218 54.5302 21.5927 52.1082 21.5927C50.8971 21.5927 50.2573 21.2271 49.8689 20.3132C49.5376 19.5134 49.6404 18.9193 50.3373 17.4227C51.674 14.5322 52.0967 13.2298 51.8682 12.6357C51.7883 12.4187 51.7083 12.373 51.5026 12.4187C51.0571 12.5329 49.9032 13.8582 49.0235 15.2634C47.6639 17.4456 47.5154 17.6512 47.1155 17.9254C46.6586 18.2453 45.8817 18.4281 45.4018 18.3481C45.002 18.2681 44.3965 17.6855 44.2251 17.2171C44.0423 16.7486 44.0651 16.1546 44.3279 14.9207C44.625 13.4583 44.7278 12.1331 44.5678 11.7332C44.2365 10.8878 43.5053 11.9388 42.7513 14.3038C42.4086 15.3891 42.1001 16.1431 41.9059 16.3831C41.2204 17.2171 39.8151 17.1942 38.9469 16.3259C38.4099 15.789 38.3985 15.7661 37.8844 13.7782C37.3931 11.9046 36.8904 10.5793 36.4448 9.95093C36.0907 9.47109 36.0221 9.42539 35.8051 9.57391Z" fill="#4E0B01"/>
<path d="M75.7345 11.8703C72.8212 13.3669 67.6115 16.7486 54.8387 25.42C52.3138 27.1337 52.0282 27.3736 50.0403 29.3044C47.6868 31.6008 46.4758 32.5719 45.0934 33.3031C43.7795 33.9886 43.0026 34.1942 41.7002 34.1942C40.4435 34.1942 39.5866 33.9771 38.7983 33.463C37.3588 32.5033 37.0503 30.6868 38.1357 29.5558C38.8212 28.836 39.6209 28.7332 40.6263 29.2473C40.9919 29.4301 41.3118 29.59 41.3346 29.59C41.3575 29.59 41.4374 29.4187 41.5174 29.213C42.1229 27.7507 41.6202 25.6257 40.3978 24.4603C38.5927 22.758 36.0221 22.6095 33.8628 24.0719C32.3776 25.0773 31.6236 26.791 31.6008 29.1673V30.4126L31.178 30.3441C30.5725 30.2412 30.1384 30.6068 30.1841 31.1781C30.2184 31.5437 30.2526 31.5894 30.6182 31.6465C31.3151 31.7607 32.0577 32.2063 33.086 33.1089C35.051 34.8454 36.0792 35.508 37.8615 36.205C40.512 37.2218 43.4253 37.0961 45.8931 35.8622C47.3669 35.1196 49.3891 33.3031 52.5766 29.83C53.0564 29.3158 53.799 28.5732 54.2331 28.2076C55.3299 27.248 60.7681 23.5235 71.9986 16.0175C76.3286 13.1156 77.6881 12.0531 77.6881 11.5618C77.6881 11.1162 76.9798 11.2305 75.7345 11.8703Z" fill="#4E0B01"/>
<path d="M52.748 31.4409C52.0397 32.3434 51.2056 33.4059 50.8972 33.8172C48.4523 37.0276 45.2534 38.7298 41.666 38.7298C39.6095 38.7298 37.6788 38.2843 35.9879 37.4046C35.1196 36.959 34.457 36.4906 31.7493 34.4227C30.1613 33.2117 28.9731 32.869 27.4765 33.166C26.2769 33.4173 25.0316 34.0343 24.5175 34.6398C23.8663 35.3938 23.9577 35.6452 24.9973 35.9308C25.3286 36.0222 25.5914 36.5477 25.5914 37.1304C25.5914 37.8159 25.7513 38.0215 26.4483 38.2157C27.1566 38.4214 27.5793 38.8441 27.6935 39.4496C27.7849 39.9523 28.1848 40.3179 28.916 40.5692C29.6129 40.8206 29.75 40.9805 30.0128 41.8145C30.2527 42.6142 30.5155 42.8999 31.1895 43.1284C31.9093 43.3683 32.172 43.6767 32.3663 44.5336C32.4577 44.922 32.629 45.3562 32.7433 45.4933C33.0403 45.8246 33.6116 46.0417 34.1599 46.0417C35.4052 46.0417 36.2164 47.0013 36.2164 48.4637C36.2164 49.2292 36.4563 49.7319 37.0161 50.1431C38.6156 51.3085 41.5175 50.5659 45.0363 48.0981C46.2816 47.2298 48.4751 45.082 49.3663 43.871C51.2056 41.3689 52.5081 38.5128 53.4106 35.0168C54.0161 32.6633 54.4274 29.8185 54.1647 29.8185C54.0961 29.8185 53.4563 30.5497 52.748 31.4409Z" fill="#4E0B01"/>
<path d="M23.2493 37.039C22.1868 37.6216 21.627 38.8783 21.5127 40.9691C21.4442 42.3629 21.5127 42.5457 21.9926 42.2258C22.6095 41.8145 24.1176 39.5181 24.4489 38.467C24.6088 37.9529 24.4489 37.336 24.0719 37.0732C23.7863 36.8676 23.5692 36.8562 23.2493 37.039Z" fill="#4E0B01"/>
<path d="M25.3058 39.6324C24.5974 39.9523 23.8434 40.8777 23.1351 42.3172C22.7923 43.0255 22.5067 43.6653 22.5067 43.7339C22.5067 44.3965 25.8313 42.3058 26.5511 41.1861C27.0995 40.3636 26.8367 39.4153 26.0827 39.4153C25.8999 39.4153 25.5571 39.5181 25.3058 39.6324Z" fill="#4E0B01"/>
<path d="M26.9052 42.1572C26.1854 42.5114 25.6485 43.0027 24.7231 44.1794C23.7862 45.3447 23.7063 45.6646 24.3575 45.5275C25.6942 45.2533 28.0248 44.1794 28.5503 43.5853C28.9959 43.0712 29.053 42.3857 28.6532 42.1115C28.299 41.8602 27.4536 41.8831 26.9052 42.1572Z" fill="#4E0B01"/>
<path d="M20.3817 43.6881C20.119 44.0994 19.9362 45.3333 20.0847 45.7217C20.1532 45.8817 20.5188 46.2359 20.8959 46.4872C21.5242 46.9213 21.5813 46.9899 21.707 47.5497C21.867 48.3266 22.0498 48.5894 22.6667 48.9549C22.9523 49.1263 23.3636 49.5148 23.5921 49.8232C24.0605 50.4859 24.4147 50.6572 25.1573 50.5658C26.1741 50.4516 26.711 49.9717 26.3569 49.4691C26.2769 49.3548 25.8199 48.9207 25.3401 48.5322C24.4375 47.7782 22.2782 45.3676 21.8213 44.6021C21.4785 44.0309 20.9073 43.414 20.7131 43.414C20.6331 43.414 20.4846 43.5396 20.3817 43.6881Z" fill="#4E0B01"/>
<path d="M28.5619 45.0363C27.8192 45.3219 25.4772 46.8985 25.4772 47.127C25.4772 47.2184 25.66 47.3098 25.9227 47.3555C26.5054 47.4469 28.9046 47.2184 29.7043 46.9899C31.0067 46.6129 31.4752 45.6189 30.6297 45.0477C30.1385 44.7164 29.4187 44.7164 28.5619 45.0363Z" fill="#4E0B01"/>
<path d="M18.8165 48.0638C18.3024 48.6922 17.6055 50.086 17.5141 50.6687L17.4456 51.0685H18.0054C18.9993 51.0685 21.0672 50.4288 21.2957 50.0517C21.3414 49.9832 21.1243 49.6747 20.8044 49.3548C20.496 49.0464 20.0732 48.5094 19.8562 48.1552C19.6505 47.8125 19.4335 47.5269 19.3649 47.5269C19.3078 47.5269 19.0564 47.7668 18.8165 48.0638Z" fill="#4E0B01"/>
<path d="M31.3609 47.7097C30.1727 47.961 27.8192 48.795 27.5565 49.0578C26.871 49.7319 32.2634 50.9771 33.3602 50.3945C34.1257 49.9832 34.5141 49.2634 34.2856 48.6922C33.9657 47.9382 32.5491 47.4698 31.3609 47.7097Z" fill="#4E0B01"/>
<path d="M39.3582 52.0511C37.7473 52.2796 37.0161 52.4052 35.0739 52.7937C29.7271 53.879 29.8299 53.8562 26.5053 53.8676C24.506 53.8676 23.1236 53.8105 22.4496 53.7077C21.25 53.5249 19.1592 53.0793 18.7137 52.9079C18.3367 52.7708 18.211 52.9079 18.4852 53.1593C18.8279 53.4677 21.2728 54.7016 22.2782 55.0672C27.3165 56.8952 32.6633 57.0208 38.1814 55.4214C41.3918 54.496 44.7621 54.2903 48.635 54.793C49.3777 54.8844 50.3031 55.0443 50.7029 55.1357C51.8797 55.4328 51.7768 55.17 50.4401 54.4731C49.0121 53.7419 46.5786 52.8965 44.3279 52.371C43.4139 52.1539 42.717 52.0739 41.4146 52.0396C40.4778 52.0168 39.5524 52.0168 39.3582 52.0511Z" fill="#4E0B01"/>
<path d="M77.3199 33.6693L82.3919 22.4693H83.9759L89.0639 33.6693H87.3839L82.8559 23.3653H83.4959L78.9679 33.6693H77.3199ZM79.4799 30.8693L79.9119 29.5893H86.2159L86.6799 30.8693H79.4799ZM95.0387 25.1093C95.732 25.1093 96.34 25.2427 96.8627 25.5093C97.396 25.776 97.812 26.1813 98.1107 26.7253C98.4094 27.2693 98.5587 27.9573 98.5587 28.7893V33.6693H97.0227V28.9653C97.0227 28.144 96.82 27.5253 96.4147 27.1093C96.02 26.6933 95.46 26.4853 94.7347 26.4853C94.1907 26.4853 93.716 26.592 93.3107 26.8053C92.9054 27.0187 92.5907 27.3333 92.3667 27.7493C92.1534 28.1653 92.0467 28.6827 92.0467 29.3013V33.6693H90.5107V25.1893H91.9827V27.4773L91.7427 26.8693C92.02 26.3147 92.4467 25.8827 93.0227 25.5733C93.5987 25.264 94.2707 25.1093 95.0387 25.1093ZM104.905 33.7653C104.084 33.7653 103.348 33.584 102.697 33.2213C102.057 32.8587 101.551 32.352 101.177 31.7013C100.804 31.0507 100.617 30.2933 100.617 29.4293C100.617 28.5653 100.804 27.8133 101.177 27.1733C101.551 26.5227 102.057 26.016 102.697 25.6533C103.348 25.2907 104.084 25.1093 104.905 25.1093C105.62 25.1093 106.265 25.2693 106.841 25.5893C107.417 25.9093 107.876 26.3893 108.217 27.0293C108.569 27.6693 108.745 28.4693 108.745 29.4293C108.745 30.3893 108.575 31.1893 108.233 31.8293C107.903 32.4693 107.449 32.9547 106.873 33.2853C106.297 33.6053 105.641 33.7653 104.905 33.7653ZM105.033 32.4213C105.567 32.4213 106.047 32.2987 106.473 32.0533C106.911 31.808 107.252 31.4613 107.497 31.0133C107.753 30.5547 107.881 30.0267 107.881 29.4293C107.881 28.8213 107.753 28.2987 107.497 27.8613C107.252 27.4133 106.911 27.0667 106.473 26.8213C106.047 26.576 105.567 26.4533 105.033 26.4533C104.489 26.4533 104.004 26.576 103.577 26.8213C103.151 27.0667 102.809 27.4133 102.553 27.8613C102.297 28.2987 102.169 28.8213 102.169 29.4293C102.169 30.0267 102.297 30.5547 102.553 31.0133C102.809 31.4613 103.151 31.808 103.577 32.0533C104.004 32.2987 104.489 32.4213 105.033 32.4213ZM107.929 33.6693V31.3813L108.025 29.4133L107.865 27.4453V21.7973H109.401V33.6693H107.929ZM116.836 25.1093C117.529 25.1093 118.137 25.2427 118.66 25.5093C119.193 25.776 119.609 26.1813 119.908 26.7253C120.206 27.2693 120.356 27.9573 120.356 28.7893V33.6693H118.82V28.9653C118.82 28.144 118.617 27.5253 118.212 27.1093C117.817 26.6933 117.257 26.4853 116.532 26.4853C115.988 26.4853 115.513 26.592 115.108 26.8053C114.702 27.0187 114.388 27.3333 114.164 27.7493C113.95 28.1653 113.844 28.6827 113.844 29.3013V33.6693H112.308V21.7973H113.844V27.4773L113.54 26.8693C113.817 26.3147 114.244 25.8827 114.82 25.5733C115.396 25.264 116.068 25.1093 116.836 25.1093ZM123.198 33.6693V25.1893H124.67V27.4933L124.526 26.9173C124.761 26.3307 125.156 25.8827 125.71 25.5733C126.265 25.264 126.948 25.1093 127.758 25.1093V26.5973C127.694 26.5867 127.63 26.5813 127.566 26.5813C127.513 26.5813 127.46 26.5813 127.406 26.5813C126.585 26.5813 125.934 26.8267 125.454 27.3173C124.974 27.808 124.734 28.5173 124.734 29.4453V33.6693H123.198ZM134.29 33.6693V31.8773L134.21 31.5413V28.4853C134.21 27.8347 134.018 27.3333 133.634 26.9813C133.261 26.6187 132.696 26.4373 131.938 26.4373C131.437 26.4373 130.946 26.5227 130.466 26.6933C129.986 26.8533 129.581 27.072 129.25 27.3493L128.61 26.1973C129.048 25.8453 129.57 25.5787 130.178 25.3973C130.797 25.2053 131.442 25.1093 132.114 25.1093C133.277 25.1093 134.173 25.392 134.802 25.9573C135.432 26.5227 135.746 27.3867 135.746 28.5493V33.6693H134.29ZM131.506 33.7653C130.877 33.7653 130.322 33.6587 129.842 33.4453C129.373 33.232 129.01 32.9387 128.754 32.5653C128.498 32.1813 128.37 31.7493 128.37 31.2693C128.37 30.8107 128.477 30.3947 128.69 30.0213C128.914 29.648 129.272 29.3493 129.762 29.1253C130.264 28.9013 130.936 28.7893 131.778 28.7893H134.466V29.8933H131.842C131.074 29.8933 130.557 30.0213 130.29 30.2773C130.024 30.5333 129.89 30.8427 129.89 31.2053C129.89 31.6213 130.056 31.9573 130.386 32.2133C130.717 32.4587 131.176 32.5813 131.762 32.5813C132.338 32.5813 132.84 32.4533 133.266 32.1973C133.704 31.9413 134.018 31.568 134.21 31.0773L134.514 32.1333C134.312 32.6347 133.954 33.0347 133.442 33.3333C132.93 33.6213 132.285 33.7653 131.506 33.7653ZM143.11 33.6693V22.4693H147.478C148.459 22.4693 149.296 22.624 149.99 22.9333C150.683 23.2427 151.216 23.6907 151.59 24.2773C151.963 24.864 152.15 25.5627 152.15 26.3733C152.15 27.184 151.963 27.8827 151.59 28.4693C151.216 29.0453 150.683 29.4933 149.99 29.8133C149.296 30.1227 148.459 30.2773 147.478 30.2773H143.99L144.71 29.5253V33.6693H143.11ZM144.71 29.6853L143.99 28.8853H147.43C148.454 28.8853 149.227 28.6667 149.75 28.2293C150.283 27.792 150.55 27.1733 150.55 26.3733C150.55 25.5733 150.283 24.9547 149.75 24.5173C149.227 24.08 148.454 23.8613 147.43 23.8613H143.99L144.71 23.0613V29.6853ZM154.12 33.6693V25.1893H155.592V27.4933L155.448 26.9173C155.683 26.3307 156.077 25.8827 156.632 25.5733C157.187 25.264 157.869 25.1093 158.68 25.1093V26.5973C158.616 26.5867 158.552 26.5813 158.488 26.5813C158.435 26.5813 158.381 26.5813 158.328 26.5813C157.507 26.5813 156.856 26.8267 156.376 27.3173C155.896 27.808 155.656 28.5173 155.656 29.4453V33.6693H154.12ZM165.212 33.6693V31.8773L165.132 31.5413V28.4853C165.132 27.8347 164.94 27.3333 164.556 26.9813C164.183 26.6187 163.618 26.4373 162.86 26.4373C162.359 26.4373 161.868 26.5227 161.388 26.6933C160.908 26.8533 160.503 27.072 160.172 27.3493L159.532 26.1973C159.97 25.8453 160.492 25.5787 161.1 25.3973C161.719 25.2053 162.364 25.1093 163.036 25.1093C164.199 25.1093 165.095 25.392 165.724 25.9573C166.354 26.5227 166.668 27.3867 166.668 28.5493V33.6693H165.212ZM162.428 33.7653C161.799 33.7653 161.244 33.6587 160.764 33.4453C160.295 33.232 159.932 32.9387 159.676 32.5653C159.42 32.1813 159.292 31.7493 159.292 31.2693C159.292 30.8107 159.399 30.3947 159.612 30.0213C159.836 29.648 160.194 29.3493 160.684 29.1253C161.186 28.9013 161.858 28.7893 162.7 28.7893H165.388V29.8933H162.764C161.996 29.8933 161.479 30.0213 161.212 30.2773C160.946 30.5333 160.812 30.8427 160.812 31.2053C160.812 31.6213 160.978 31.9573 161.308 32.2133C161.639 32.4587 162.098 32.5813 162.684 32.5813C163.26 32.5813 163.762 32.4533 164.188 32.1973C164.626 31.9413 164.94 31.568 165.132 31.0773L165.436 32.1333C165.234 32.6347 164.876 33.0347 164.364 33.3333C163.852 33.6213 163.207 33.7653 162.428 33.7653ZM173.015 33.7653C172.193 33.7653 171.457 33.584 170.807 33.2213C170.167 32.8587 169.66 32.352 169.287 31.7013C168.913 31.0507 168.727 30.2933 168.727 29.4293C168.727 28.5653 168.913 27.8133 169.287 27.1733C169.66 26.5227 170.167 26.016 170.807 25.6533C171.457 25.2907 172.193 25.1093 173.015 25.1093C173.729 25.1093 174.375 25.2693 174.951 25.5893C175.527 25.9093 175.985 26.3893 176.327 27.0293C176.679 27.6693 176.855 28.4693 176.855 29.4293C176.855 30.3893 176.684 31.1893 176.343 31.8293C176.012 32.4693 175.559 32.9547 174.983 33.2853C174.407 33.6053 173.751 33.7653 173.015 33.7653ZM173.143 32.4213C173.676 32.4213 174.156 32.2987 174.583 32.0533C175.02 31.808 175.361 31.4613 175.607 31.0133C175.863 30.5547 175.991 30.0267 175.991 29.4293C175.991 28.8213 175.863 28.2987 175.607 27.8613C175.361 27.4133 175.02 27.0667 174.583 26.8213C174.156 26.576 173.676 26.4533 173.143 26.4533C172.599 26.4533 172.113 26.576 171.687 26.8213C171.26 27.0667 170.919 27.4133 170.663 27.8613C170.407 28.2987 170.279 28.8213 170.279 29.4293C170.279 30.0267 170.407 30.5547 170.663 31.0133C170.919 31.4613 171.26 31.808 171.687 32.0533C172.113 32.2987 172.599 32.4213 173.143 32.4213ZM176.039 33.6693V31.3813L176.135 29.4133L175.975 27.4453V21.7973H177.511V33.6693H176.039ZM184.193 33.7653C183.286 33.7653 182.486 33.5787 181.793 33.2053C181.11 32.832 180.577 32.32 180.193 31.6693C179.82 31.0187 179.633 30.272 179.633 29.4293C179.633 28.5867 179.814 27.84 180.177 27.1893C180.55 26.5387 181.057 26.032 181.697 25.6693C182.348 25.296 183.078 25.1093 183.889 25.1093C184.71 25.1093 185.436 25.2907 186.065 25.6533C186.694 26.016 187.185 26.528 187.537 27.1893C187.9 27.84 188.081 28.6027 188.081 29.4773C188.081 29.5413 188.076 29.616 188.065 29.7013C188.065 29.7867 188.06 29.8667 188.049 29.9413H180.833V28.8373H187.249L186.625 29.2213C186.636 28.6773 186.524 28.192 186.289 27.7653C186.054 27.3387 185.729 27.008 185.313 26.7733C184.908 26.528 184.433 26.4053 183.889 26.4053C183.356 26.4053 182.881 26.528 182.465 26.7733C182.049 27.008 181.724 27.344 181.489 27.7813C181.254 28.208 181.137 28.6987 181.137 29.2533V29.5093C181.137 30.0747 181.265 30.5813 181.521 31.0293C181.788 31.4667 182.156 31.808 182.625 32.0533C183.094 32.2987 183.633 32.4213 184.241 32.4213C184.742 32.4213 185.196 32.336 185.601 32.1653C186.017 31.9947 186.38 31.7387 186.689 31.3973L187.537 32.3893C187.153 32.8373 186.673 33.1787 186.097 33.4133C185.532 33.648 184.897 33.7653 184.193 33.7653ZM192.646 33.7653C191.942 33.7653 191.27 33.6693 190.63 33.4773C190 33.2853 189.504 33.0507 189.142 32.7733L189.782 31.5573C190.144 31.8027 190.592 32.0107 191.126 32.1813C191.659 32.352 192.203 32.4373 192.758 32.4373C193.472 32.4373 193.984 32.336 194.294 32.1333C194.614 31.9307 194.774 31.648 194.774 31.2853C194.774 31.0187 194.678 30.8107 194.486 30.6613C194.294 30.512 194.038 30.4 193.718 30.3253C193.408 30.2507 193.062 30.1867 192.678 30.1333C192.294 30.0693 191.91 29.9947 191.526 29.9093C191.142 29.8133 190.79 29.6853 190.47 29.5253C190.15 29.3547 189.894 29.1253 189.702 28.8373C189.51 28.5387 189.414 28.144 189.414 27.6533C189.414 27.1413 189.558 26.6933 189.846 26.3093C190.134 25.9253 190.539 25.632 191.062 25.4293C191.595 25.216 192.224 25.1093 192.95 25.1093C193.504 25.1093 194.064 25.1787 194.63 25.3173C195.206 25.4453 195.675 25.632 196.038 25.8773L195.382 27.0933C194.998 26.8373 194.598 26.6613 194.182 26.5653C193.766 26.4693 193.35 26.4213 192.934 26.4213C192.262 26.4213 191.76 26.5333 191.43 26.7573C191.099 26.9707 190.934 27.248 190.934 27.5893C190.934 27.8773 191.03 28.1013 191.222 28.2613C191.424 28.4107 191.68 28.528 191.99 28.6133C192.31 28.6987 192.662 28.7733 193.046 28.8373C193.43 28.8907 193.814 28.9653 194.198 29.0613C194.582 29.1467 194.928 29.2693 195.238 29.4293C195.558 29.5893 195.814 29.8133 196.006 30.1013C196.208 30.3893 196.31 30.7733 196.31 31.2533C196.31 31.7653 196.16 32.208 195.862 32.5813C195.563 32.9547 195.142 33.248 194.598 33.4613C194.054 33.664 193.403 33.7653 192.646 33.7653ZM202.757 25.1093C203.451 25.1093 204.059 25.2427 204.581 25.5093C205.115 25.776 205.531 26.1813 205.829 26.7253C206.128 27.2693 206.277 27.9573 206.277 28.7893V33.6693H204.741V28.9653C204.741 28.144 204.539 27.5253 204.133 27.1093C203.739 26.6933 203.179 26.4853 202.453 26.4853C201.909 26.4853 201.435 26.592 201.029 26.8053C200.624 27.0187 200.309 27.3333 200.085 27.7493C199.872 28.1653 199.765 28.6827 199.765 29.3013V33.6693H198.229V21.7973H199.765V27.4773L199.461 26.8693C199.739 26.3147 200.165 25.8827 200.741 25.5733C201.317 25.264 201.989 25.1093 202.757 25.1093Z" fill="#4E0B01"/>
<path d="M80.4241 52.6693V45.3133H77.5441V44.2693H84.4921V45.3133H81.6121V52.6693H80.4241ZM87.6988 52.7413C87.0588 52.7413 86.4908 52.6013 85.9948 52.3213C85.4988 52.0413 85.1068 51.6573 84.8188 51.1693C84.5308 50.6733 84.3868 50.1133 84.3868 49.4893C84.3868 48.8573 84.5308 48.2973 84.8188 47.8093C85.1068 47.3213 85.4988 46.9413 85.9948 46.6693C86.4908 46.3893 87.0588 46.2493 87.6988 46.2493C88.3308 46.2493 88.8948 46.3893 89.3908 46.6693C89.8948 46.9413 90.2868 47.3213 90.5668 47.8093C90.8548 48.2893 90.9988 48.8493 90.9988 49.4893C90.9988 50.1213 90.8548 50.6813 90.5668 51.1693C90.2868 51.6573 89.8948 52.0413 89.3908 52.3213C88.8948 52.6013 88.3308 52.7413 87.6988 52.7413ZM87.6988 51.7333C88.1068 51.7333 88.4708 51.6413 88.7908 51.4573C89.1188 51.2733 89.3748 51.0133 89.5588 50.6773C89.7428 50.3333 89.8348 49.9373 89.8348 49.4893C89.8348 49.0333 89.7428 48.6413 89.5588 48.3133C89.3748 47.9773 89.1188 47.7173 88.7908 47.5333C88.4708 47.3493 88.1068 47.2573 87.6988 47.2573C87.2908 47.2573 86.9268 47.3493 86.6068 47.5333C86.2868 47.7173 86.0308 47.9773 85.8388 48.3133C85.6468 48.6413 85.5508 49.0333 85.5508 49.4893C85.5508 49.9373 85.6468 50.3333 85.8388 50.6773C86.0308 51.0133 86.2868 51.2733 86.6068 51.4573C86.9268 51.6413 87.2908 51.7333 87.6988 51.7333ZM95.268 52.7413C94.724 52.7413 94.244 52.6413 93.828 52.4413C93.42 52.2413 93.1 51.9373 92.868 51.5293C92.644 51.1133 92.532 50.5933 92.532 49.9693V46.3093H93.684V49.8373C93.684 50.4613 93.832 50.9293 94.128 51.2413C94.432 51.5533 94.856 51.7093 95.4 51.7093C95.8 51.7093 96.148 51.6293 96.444 51.4693C96.74 51.3013 96.968 51.0613 97.128 50.7493C97.288 50.4293 97.368 50.0453 97.368 49.5973V46.3093H98.52V52.6693H97.428V50.9533L97.608 51.4093C97.4 51.8333 97.088 52.1613 96.672 52.3933C96.256 52.6253 95.788 52.7413 95.268 52.7413ZM100.713 52.6693V46.3093H101.817V48.0373L101.709 47.6053C101.885 47.1653 102.181 46.8293 102.597 46.5973C103.013 46.3653 103.525 46.2493 104.133 46.2493V47.3653C104.085 47.3573 104.037 47.3533 103.989 47.3533C103.949 47.3533 103.909 47.3533 103.869 47.3533C103.253 47.3533 102.765 47.5373 102.405 47.9053C102.045 48.2733 101.865 48.8053 101.865 49.5013V52.6693H100.713ZM105.553 52.6693V46.3093H106.705V52.6693H105.553ZM106.129 45.0853C105.905 45.0853 105.717 45.0133 105.565 44.8693C105.421 44.7253 105.349 44.5493 105.349 44.3413C105.349 44.1253 105.421 43.9453 105.565 43.8013C105.717 43.6573 105.905 43.5853 106.129 43.5853C106.353 43.5853 106.537 43.6573 106.681 43.8013C106.833 43.9373 106.909 44.1093 106.909 44.3173C106.909 44.5333 106.837 44.7173 106.693 44.8693C106.549 45.0133 106.361 45.0853 106.129 45.0853ZM110.729 52.7413C110.201 52.7413 109.697 52.6693 109.217 52.5253C108.745 52.3813 108.373 52.2053 108.101 51.9973L108.581 51.0853C108.853 51.2693 109.189 51.4253 109.589 51.5533C109.989 51.6813 110.397 51.7453 110.812 51.7453C111.349 51.7453 111.733 51.6693 111.965 51.5173C112.205 51.3653 112.325 51.1533 112.325 50.8813C112.325 50.6813 112.253 50.5253 112.109 50.4133C111.965 50.3013 111.773 50.2173 111.533 50.1613C111.301 50.1053 111.041 50.0573 110.753 50.0173C110.465 49.9693 110.177 49.9133 109.889 49.8493C109.601 49.7773 109.337 49.6813 109.097 49.5613C108.857 49.4333 108.665 49.2613 108.521 49.0453C108.377 48.8213 108.305 48.5253 108.305 48.1573C108.305 47.7733 108.413 47.4373 108.629 47.1493C108.845 46.8613 109.149 46.6413 109.541 46.4893C109.941 46.3293 110.413 46.2493 110.957 46.2493C111.373 46.2493 111.793 46.3013 112.217 46.4053C112.649 46.5013 113.001 46.6413 113.273 46.8253L112.781 47.7373C112.493 47.5453 112.193 47.4133 111.881 47.3413C111.569 47.2693 111.257 47.2333 110.945 47.2333C110.441 47.2333 110.065 47.3173 109.817 47.4853C109.569 47.6453 109.445 47.8533 109.445 48.1093C109.445 48.3253 109.517 48.4933 109.661 48.6133C109.813 48.7253 110.005 48.8133 110.237 48.8773C110.477 48.9413 110.741 48.9973 111.029 49.0453C111.317 49.0853 111.605 49.1413 111.893 49.2133C112.181 49.2773 112.441 49.3693 112.673 49.4893C112.913 49.6093 113.105 49.7773 113.249 49.9933C113.401 50.2093 113.477 50.4973 113.477 50.8573C113.477 51.2413 113.365 51.5733 113.141 51.8533C112.917 52.1333 112.601 52.3533 112.193 52.5133C111.785 52.6653 111.297 52.7413 110.729 52.7413ZM122.872 46.2493C123.384 46.2493 123.836 46.3493 124.228 46.5493C124.62 46.7493 124.924 47.0533 125.14 47.4613C125.364 47.8693 125.476 48.3853 125.476 49.0093V52.6693H124.324V49.1413C124.324 48.5253 124.18 48.0613 123.892 47.7493C123.604 47.4373 123.2 47.2813 122.68 47.2813C122.296 47.2813 121.96 47.3613 121.672 47.5213C121.384 47.6813 121.16 47.9173 121 48.2293C120.848 48.5413 120.772 48.9293 120.772 49.3933V52.6693H119.62V49.1413C119.62 48.5253 119.476 48.0613 119.188 47.7493C118.908 47.4373 118.504 47.2813 117.976 47.2813C117.6 47.2813 117.268 47.3613 116.98 47.5213C116.692 47.6813 116.468 47.9173 116.308 48.2293C116.148 48.5413 116.068 48.9293 116.068 49.3933V52.6693H114.916V46.3093H116.02V48.0013L115.84 47.5693C116.04 47.1533 116.348 46.8293 116.764 46.5973C117.18 46.3653 117.664 46.2493 118.216 46.2493C118.824 46.2493 119.348 46.4013 119.788 46.7053C120.228 47.0013 120.516 47.4533 120.652 48.0613L120.184 47.8693C120.376 47.3813 120.712 46.9893 121.192 46.6933C121.672 46.3973 122.232 46.2493 122.872 46.2493Z" fill="#4E0B01"/>
</svg>
